External Loads File
version=1
nRows=38
nColumns=13
Range=5.000000e-03-10 seconds
endheader
time 	forceRightX 	forceRightY 	forceRightZ 	pointRightX 	pointRightY 	pointRightZ 	forceLeftX 	forceLeftY 	forceLeftZ 	pointLeftX 	pointLeftY 	pointLeftZ 		
7.505000 30.376062 -16.954376 -0.000000 0.153910 0.381215 -0.149156 -76.613382 873.307510 -0.000000 0.416530 0.256930 -0.384744
7.510000 26.095024 -17.074091 -0.000000 0.158441 0.391180 -0.149306 -65.267954 894.993523 -0.000000 0.412126 0.247024 -0.384206
7.515000 20.319532 -19.192647 -0.000000 0.163643 0.401126 -0.149522 -51.235129 917.384712 -0.000000 0.407411 0.237293 -0.383947
7.520000 13.102339 -23.116976 -0.000000 0.169341 0.410829 -0.149623 -35.018491 940.076814 -0.000000 0.402122 0.227949 -0.383621
7.525000 4.627014 -28.491852 -0.000000 0.175501 0.420341 -0.149775 -16.953243 962.432695 -0.000000 0.396373 0.219275 -0.383311
7.530000 -4.843261 -34.814992 -0.000000 0.182116 0.429651 -0.150135 4.725614 983.591882 -0.000000 0.390077 0.210797 -0.382850
7.535000 -14.840426 -41.492247 -0.000000 0.189070 0.438504 -0.150505 28.528760 1002.487887 -0.000000 0.383316 0.202777 -0.382599
7.540000 -24.922855 -47.926718 -0.000000 0.196381 0.447282 -0.150998 55.154267 1018.054534 -0.000000 0.376101 0.195260 -0.382486
7.545000 -34.610653 -53.589901 -0.000000 0.204247 0.455270 -0.151417 83.626038 1029.318669 -0.000000 0.368477 0.188088 -0.382404
7.550000 -43.365365 -58.174345 -0.000000 0.212458 0.462294 -0.151734 110.469258 1035.686272 -0.000000 0.360992 0.181726 -0.382813
7.555000 -51.209484 -61.158165 -0.000000 0.220843 0.469004 -0.152113 139.923425 1035.897317 -0.000000 0.352697 0.175321 -0.382772
7.560000 -57.903789 -62.284488 -0.000000 0.229704 0.475083 -0.152415 168.639883 1029.488146 -0.000000 0.344157 0.169826 -0.382662
7.565000 -63.491900 -61.040970 -0.000000 0.239119 0.480647 -0.152342 196.872980 1015.714411 -0.000000 0.335336 0.165041 -0.382593
7.570000 -67.722358 -57.091797 -0.000000 0.247897 0.485530 -0.152968 220.166164 994.866335 -0.000000 0.326388 0.160799 -0.382560
7.575000 -70.734797 -49.528867 -0.000000 0.257390 0.489527 -0.153265 242.013710 965.761478 -0.000000 0.317237 0.157164 -0.382445
7.580000 -72.215743 -37.825642 -0.000000 0.267093 0.493088 -0.153491 260.297009 928.349853 -0.000000 0.308040 0.154245 -0.382342
7.585000 -71.851710 -21.478026 -0.000000 0.277194 0.495977 -0.153777 274.986426 882.142577 -0.000000 0.298804 0.151977 -0.382268
7.590000 -69.233699 -0.473277 -0.000000 0.286900 0.498217 -0.154004 283.758139 827.519446 -0.000000 0.289496 0.150459 -0.382204
7.595000 -64.098993 25.078393 -0.000000 0.296844 0.499720 -0.154334 287.741135 764.115127 -0.000000 0.280217 0.149547 -0.382107
7.600000 -56.290932 54.430492 -0.000000 0.306628 0.500566 -0.154437 285.840926 692.760034 -0.000000 0.270960 0.149473 -0.382055
7.605000 -45.872684 86.470782 -0.000000 0.316385 0.500784 -0.154097 278.190461 614.485701 -0.000000 0.261791 0.150141 -0.382008
7.610000 -33.327158 119.699891 -0.000000 0.325670 0.500277 -0.154154 264.363046 531.260900 -0.000000 0.252693 0.151597 -0.381951
7.615000 -19.462263 152.680049 -0.000000 0.334405 0.499048 -0.153768 244.795641 445.318269 -0.000000 0.243718 0.153761 -0.381884
7.620000 -5.171805 184.403867 -0.000000 0.342727 0.497079 -0.153423 220.493345 358.999588 -0.000000 0.234951 0.156681 -0.381713
7.625000 8.418762 214.529844 -0.000000 0.350297 0.494430 -0.152821 192.192660 274.963066 -0.000000 0.226377 0.160246 -0.381432
7.630000 20.969407 243.369432 -0.000000 0.357802 0.490948 -0.152341 161.684738 195.104559 -0.000000 0.217910 0.164308 -0.381229
7.635000 31.626651 271.681035 -0.000000 0.364770 0.486837 -0.151958 129.721434 121.784686 -0.000000 0.209685 0.169068 -0.380977
7.640000 40.398799 300.300740 -0.000000 0.371641 0.481909 -0.151101 97.654136 56.504187 -0.000000 0.201764 0.174325 -0.380624
7.645000 46.845878 330.013756 -0.000000 0.377862 0.476369 -0.150296 66.515568 0.551035 -0.000000 0.193993 0.179986 -0.380333
7.650000 51.763471 361.181045 -0.000000 0.383894 0.470133 -0.150200 37.325556 -45.610841 -0.000000 0.185905 0.185836 -0.379171
7.655000 54.212145 394.036734 -0.000000 0.389580 0.463261 -0.149772 10.963791 -81.754901 -0.000000 0.178822 0.192380 -0.378982
7.660000 54.847438 428.129329 -0.000000 0.395052 0.455696 -0.149361 -12.030222 -108.368794 -0.000000 0.172067 0.199293 -0.378722
7.665000 54.280999 462.586877 -0.000000 0.400349 0.447472 -0.149226 -31.467306 -126.132349 -0.000000 0.165784 0.207266 -0.378507
7.670000 51.518482 496.445470 -0.000000 0.405323 0.438686 -0.149145 -46.874442 -136.052643 -0.000000 0.159827 0.215237 -0.378214
7.675000 46.265167 528.604951 -0.000000 0.410188 0.429678 -0.149199 -58.071234 -139.290454 -0.000000 0.154298 0.223363 -0.378112
7.680000 38.575955 558.208224 -0.000000 0.414351 0.420218 -0.149189 -65.123165 -136.998618 -0.000000 0.149227 0.232090 -0.377997
7.685000 28.402504 584.913701 -0.000000 0.418424 0.410371 -0.149424 -68.206399 -130.341863 -0.000000 0.144692 0.240994 -0.377929
7.690000 15.930881 608.846900 -0.000000 0.422170 0.400217 -0.149520 -67.628081 -120.445637 -0.000000 0.140666 0.250241 -0.377952
